<?xml version="1.0" encoding="UTF-8"?>
<!--Generator: Apple Native CoreSVG 341-->
<!DOCTYPE svg
PUBLIC "-//W3C//DTD SVG 1.1//EN"
       "http://www.w3.org/Graphics/SVG/1.1/DTD/svg11.dtd">
<svg version="1.1" xmlns="http://www.w3.org/2000/svg" xmlns:xlink="http://www.w3.org/1999/xlink" viewBox="0 0 3300 2200">
 <!--glyph: "", point size: 100.0, font version: "21.1d1e1", template writer version: "138.0.0"-->
 <style>.defaults {-sfsymbols-variable-value-mode:color;-sfsymbols-draw-reverses-motion-groups:true}

.monochrome-0 {-sfsymbols-motion-group:1;-sfsymbols-layer-tags:-45b0e21e08115890 _enclosure.stroke shield}
.monochrome-1 {-sfsymbols-motion-group:0;-sfsymbols-always-pulses:true;-sfsymbols-layer-tags:-45b0e21e08115890 -7c385b2e5537201c motorcycle.fill}

.multicolor-0:tintColor {-sfsymbols-motion-group:1;-sfsymbols-layer-tags:-45b0e21e08115890 _enclosure.stroke shield}
.multicolor-1:tintColor {-sfsymbols-motion-group:0;-sfsymbols-always-pulses:true;-sfsymbols-layer-tags:-45b0e21e08115890 -7c385b2e5537201c motorcycle.fill}

.hierarchical-0:secondary {-sfsymbols-motion-group:1;-sfsymbols-layer-tags:-45b0e21e08115890 _enclosure.stroke shield}
.hierarchical-1:primary {-sfsymbols-motion-group:0;-sfsymbols-always-pulses:true;-sfsymbols-layer-tags:-45b0e21e08115890 -7c385b2e5537201c motorcycle.fill}

.SFSymbolsPreviewWireframe {fill:none;opacity:1.0;stroke:black;stroke-width:0.5}
</style>
 <g id="Notes">
  <rect height="2200" id="artboard" style="fill:white;opacity:1" width="3300" x="0" y="0"/>
  <line style="fill:none;stroke:black;opacity:1;stroke-width:0.5;" x1="263" x2="3036" y1="292" y2="292"/>
  <text style="stroke:none;fill:black;font-family:sans-serif;font-size:13;font-weight:bold;" transform="matrix(1 0 0 1 263 322)">Weight/Scale Variations</text>
  <text style="stroke:none;fill:black;font-family:sans-serif;font-size:13;text-anchor:middle;" transform="matrix(1 0 0 1 559.711 322)">Ultralight</text>
  <text style="stroke:none;fill:black;font-family:sans-serif;font-size:13;text-anchor:middle;" transform="matrix(1 0 0 1 856.422 322)">Thin</text>
  <text style="stroke:none;fill:black;font-family:sans-serif;font-size:13;text-anchor:middle;" transform="matrix(1 0 0 1 1153.13 322)">Light</text>
  <text style="stroke:none;fill:black;font-family:sans-serif;font-size:13;text-anchor:middle;" transform="matrix(1 0 0 1 1449.84 322)">Regular</text>
  <text style="stroke:none;fill:black;font-family:sans-serif;font-size:13;text-anchor:middle;" transform="matrix(1 0 0 1 1746.56 322)">Medium</text>
  <text style="stroke:none;fill:black;font-family:sans-serif;font-size:13;text-anchor:middle;" transform="matrix(1 0 0 1 2043.27 322)">Semibold</text>
  <text style="stroke:none;fill:black;font-family:sans-serif;font-size:13;text-anchor:middle;" transform="matrix(1 0 0 1 2339.98 322)">Bold</text>
  <text style="stroke:none;fill:black;font-family:sans-serif;font-size:13;text-anchor:middle;" transform="matrix(1 0 0 1 2636.69 322)">Heavy</text>
  <text style="stroke:none;fill:black;font-family:sans-serif;font-size:13;text-anchor:middle;" transform="matrix(1 0 0 1 2933.4 322)">Black</text>
  <line style="fill:none;stroke:black;opacity:1;stroke-width:0.5;" x1="263" x2="3036" y1="1903" y2="1903"/>
  <g transform="matrix(0.2 0 0 0.2 263 1933)">
   <path d="m46.2402 4.15039c21.7773 0 39.4531-17.627 39.4531-39.4043s-17.6758-39.4043-39.4531-39.4043c-21.7285 0-39.4043 17.627-39.4043 39.4043s17.6758 39.4043 39.4043 39.4043Zm0-7.42188c-17.6758 0-31.9336-14.3066-31.9336-31.9824s14.2578-31.9824 31.9336-31.9824 31.9824 14.3066 31.9824 31.9824-14.3066 31.9824-31.9824 31.9824Zm3.61328-17.7734v-28.4668c0-2.24609-1.46484-3.75977-3.71094-3.75977-2.14844 0-3.61328 1.51367-3.61328 3.75977v28.4668c0 2.19727 1.46484 3.71094 3.61328 3.71094 2.24609 0 3.71094-1.51367 3.71094-3.71094Zm-17.8223-10.5957h28.418c2.19727 0 3.71094-1.46484 3.71094-3.61328 0-2.19727-1.51367-3.71094-3.71094-3.71094h-28.418c-2.24609 0-3.75977 1.51367-3.75977 3.71094 0 2.14844 1.51367 3.61328 3.75977 3.61328Z"/>
  </g>
  <g transform="matrix(0.2 0 0 0.2 281.506 1933)">
   <path d="m58.5449 14.5508c27.4902 0 49.8047-22.3145 49.8047-49.8047s-22.3145-49.8047-49.8047-49.8047-49.8047 22.3145-49.8047 49.8047 22.3145 49.8047 49.8047 49.8047Zm0-8.30078c-22.9492 0-41.5039-18.5547-41.5039-41.5039s18.5547-41.5039 41.5039-41.5039 41.5039 18.5547 41.5039 41.5039-18.5547 41.5039-41.5039 41.5039Zm4.05273-23.0957v-36.9141c0-2.49023-1.70898-4.19922-4.15039-4.19922-2.39258 0-4.05273 1.70898-4.05273 4.19922v36.9141c0 2.44141 1.66016 4.15039 4.05273 4.15039 2.44141 0 4.15039-1.66016 4.15039-4.15039Zm-22.5586-14.4043h36.9629c2.44141 0 4.15039-1.61133 4.15039-4.00391 0-2.44141-1.70898-4.15039-4.15039-4.15039h-36.9629c-2.49023 0-4.15039 1.70898-4.15039 4.15039 0 2.39258 1.66016 4.00391 4.15039 4.00391Z"/>
  </g>
  <g transform="matrix(0.2 0 0 0.2 304.924 1933)">
   <path d="m74.8535 28.3203c35.1074 0 63.623-28.4668 63.623-63.5742s-28.5156-63.623-63.623-63.623-63.5742 28.5156-63.5742 63.623 28.4668 63.5742 63.5742 63.5742Zm0-9.08203c-30.127 0-54.4922-24.3652-54.4922-54.4922s24.3652-54.4922 54.4922-54.4922 54.4922 24.3652 54.4922 54.4922-24.3652 54.4922-54.4922 54.4922Zm4.44336-30.3223v-48.4863c0-2.73438-1.85547-4.63867-4.54102-4.63867-2.58789 0-4.44336 1.9043-4.44336 4.63867v48.4863c0 2.68555 1.85547 4.58984 4.44336 4.58984 2.68555 0 4.54102-1.85547 4.54102-4.58984Zm-28.7109-19.7754h48.4863c2.68555 0 4.58984-1.80664 4.58984-4.39453 0-2.73438-1.85547-4.58984-4.58984-4.58984h-48.4863c-2.73438 0-4.58984 1.85547-4.58984 4.58984 0 2.58789 1.85547 4.39453 4.58984 4.39453Z"/>
  </g>
  <text style="stroke:none;fill:black;font-family:sans-serif;font-size:13;font-weight:bold;" transform="matrix(1 0 0 1 263 1953)">Design Variations</text>
  <text style="stroke:none;fill:black;font-family:sans-serif;font-size:13;" transform="matrix(1 0 0 1 263 1971)">Symbols are supported in up to nine weights and three scales.</text>
  <text style="stroke:none;fill:black;font-family:sans-serif;font-size:13;" transform="matrix(1 0 0 1 263 1989)">For optimal layout with text and other symbols, vertically align</text>
  <text style="stroke:none;fill:black;font-family:sans-serif;font-size:13;" transform="matrix(1 0 0 1 263 2007)">symbols with the adjacent text.</text>
  <line style="fill:none;stroke:#00AEEF;stroke-width:0.5;opacity:1.0;" x1="776" x2="776" y1="1919" y2="1933"/>
  <g transform="matrix(0.2 0 0 0.2 776 1933)">
   <path d="m16.5527 0.78125c2.58789 0 3.85742-0.976562 4.78516-3.71094l20.5566-57.5195h0.244141l20.6055 57.5195c0.927734 2.73438 2.19727 3.71094 4.73633 3.71094 2.58789 0 4.24805-1.5625 4.24805-4.00391 0-0.830078-0.146484-1.61133-0.537109-2.63672l-22.9004-60.9863c-1.12305-2.97852-3.125-4.49219-6.25-4.49219-3.02734 0-5.07812 1.46484-6.15234 4.44336l-22.9004 61.084c-0.390625 1.02539-0.537109 1.80664-0.537109 2.63672 0 2.44141 1.5625 3.95508 4.10156 3.95508Zm10.2051-20.9473h30.6641c2.00195 0 3.66211-1.66016 3.66211-3.66211 0-2.05078-1.66016-3.66211-3.66211-3.66211h-30.6641c-2.00195 0-3.66211 1.61133-3.66211 3.66211 0 2.00195 1.66016 3.66211 3.66211 3.66211Z"/>
  </g>
  <line style="fill:none;stroke:#00AEEF;stroke-width:0.5;opacity:1.0;" x1="792.836" x2="792.836" y1="1919" y2="1933"/>
  <text style="stroke:none;fill:black;font-family:sans-serif;font-size:13;font-weight:bold;" transform="matrix(1 0 0 1 776 1953)">Margins</text>
  <text style="stroke:none;fill:black;font-family:sans-serif;font-size:13;" transform="matrix(1 0 0 1 776 1971)">Leading and trailing margins on the left and right side of each symbol</text>
  <text style="stroke:none;fill:black;font-family:sans-serif;font-size:13;" transform="matrix(1 0 0 1 776 1989)">can be adjusted by modifying the x-location of the margin guidelines.</text>
  <text style="stroke:none;fill:black;font-family:sans-serif;font-size:13;" transform="matrix(1 0 0 1 776 2007)">Modifications are automatically applied proportionally to all</text>
  <text style="stroke:none;fill:black;font-family:sans-serif;font-size:13;" transform="matrix(1 0 0 1 776 2025)">scales and weights.</text>
  <g transform="matrix(0.2 0 0 0.2 1289 1933)">
   <path d="m14.209 13.1348 7.86133 7.86133c4.29688 4.39453 9.32617 4.10156 13.8672-1.02539l60.6934-68.2129-4.88281-4.88281-60.2539 67.6758c-1.80664 1.95312-3.4668 2.44141-5.81055 0.0976562l-5.17578-5.12695c-2.29492-2.29492-1.80664-3.95508 0.195312-5.81055l67.4805-62.1582-4.88281-4.83398-68.0664 62.5977c-4.98047 4.58984-5.32227 9.47266-1.02539 13.8184Zm44.873-97.4609c-2.05078 2.00195-2.24609 4.88281-1.07422 6.78711 1.12305 1.80664 3.4668 3.02734 6.5918 2.24609 5.85938-1.66016 12.5977-2.39258 18.8965 0.927734l-2.68555 7.12891c-1.61133 4.00391-0.732422 6.88477 1.70898 9.42383l10.2539 10.3027c2.34375 2.39258 4.54102 2.44141 7.08008 1.95312l4.44336-0.732422 2.58789 2.53906-0.195312 2.24609c-0.0976562 2.29492 0.537109 4.29688 2.7832 6.49414l3.36914 3.32031c2.29492 2.29492 5.51758 2.49023 7.8125 0.195312l12.9883-13.0371c2.29492-2.34375 2.14844-5.37109-0.195312-7.66602l-3.41797-3.41797c-2.19727-2.19727-4.05273-3.02734-6.34766-2.88086l-2.34375 0.244141-2.44141-2.44141 1.02539-4.6875c0.634766-2.73438-0.244141-4.98047-2.88086-7.61719l-11.2793-11.1816c-12.9395-12.8418-35.5957-11.0352-46.6797-0.146484Zm7.08008 2.05078c8.78906-6.39648 25.9766-5.66406 33.6914 1.95312l12.3047 12.207c1.02539 1.02539 1.2207 1.80664 0.927734 3.32031l-1.46484 6.64062 6.73828 6.68945 4.39453-0.244141c1.12305-0.0488281 1.51367 0.0488281 2.34375 0.878906l2.53906 2.49023-10.8398 10.8398-2.49023-2.49023c-0.830078-0.878906-0.976562-1.2207-0.927734-2.39258l0.292969-4.3457-6.68945-6.73828-6.83594 1.17188c-1.41602 0.292969-2.05078 0.195312-3.17383-0.878906l-8.93555-8.88672c-1.07422-1.02539-1.17188-1.70898-0.488281-3.36914l4.58984-11.4746c-6.10352-6.34766-17.041-7.51953-25.5859-4.58984-0.683594 0.244141-0.927734-0.390625-0.390625-0.78125Z"/>
  </g>
  <text style="stroke:none;fill:black;font-family:sans-serif;font-size:13;font-weight:bold;" transform="matrix(1 0 0 1 1289 1953)">Exporting</text>
  <text style="stroke:none;fill:black;font-family:sans-serif;font-size:13;" transform="matrix(1 0 0 1 1289 1971)">Symbols should be outlined when exporting to ensure the</text>
  <text style="stroke:none;fill:black;font-family:sans-serif;font-size:13;" transform="matrix(1 0 0 1 1289 1989)">design is preserved when submitting to Xcode.</text>
  <text id="template-version" style="stroke:none;fill:black;font-family:sans-serif;font-size:13;text-anchor:end;" transform="matrix(1 0 0 1 3036 1933)">Template v.7.0</text>
  <text style="stroke:none;fill:black;font-family:sans-serif;font-size:13;text-anchor:end;" transform="matrix(1 0 0 1 3036 1951)">Requires Xcode 26 or greater</text>
  <text id="descriptive-name" style="stroke:none;fill:black;font-family:sans-serif;font-size:13;text-anchor:end;" transform="matrix(1 0 0 1 3036 1969)">Generated from shield</text>
  <text style="stroke:none;fill:black;font-family:sans-serif;font-size:13;text-anchor:end;" transform="matrix(1 0 0 1 3036 1987)">Typeset at 100.0 points</text>
  <text style="stroke:none;fill:black;font-family:sans-serif;font-size:13;" transform="matrix(1 0 0 1 263 726)">Small</text>
  <text style="stroke:none;fill:black;font-family:sans-serif;font-size:13;" transform="matrix(1 0 0 1 263 1156)">Medium</text>
  <text style="stroke:none;fill:black;font-family:sans-serif;font-size:13;" transform="matrix(1 0 0 1 263 1586)">Large</text>
 </g>
 <g id="Guides">
  <g id="H-reference" style="fill:#27AAE1;stroke:none;" transform="matrix(1 0 0 1 339 696)">
   <path d="M0.993654 0L3.63775 0L29.3281-67.1323L30.0303-67.1323L30.0303-70.459L28.1226-70.459ZM11.6885-24.4799L46.9815-24.4799L46.2315-26.7285L12.4385-26.7285ZM55.1196 0L57.7637 0L30.6382-70.459L29.4326-70.459L29.4326-67.1323Z"/>
  </g>
  <line id="Baseline-S" style="fill:none;stroke:#27AAE1;opacity:1;stroke-width:0.5;" x1="263" x2="3036" y1="696" y2="696"/>
  <line id="Capline-S" style="fill:none;stroke:#27AAE1;opacity:1;stroke-width:0.5;" x1="263" x2="3036" y1="625.541" y2="625.541"/>
  <g id="H-reference" style="fill:#27AAE1;stroke:none;" transform="matrix(1 0 0 1 339 1126)">
   <path d="M0.993654 0L3.63775 0L29.3281-67.1323L30.0303-67.1323L30.0303-70.459L28.1226-70.459ZM11.6885-24.4799L46.9815-24.4799L46.2315-26.7285L12.4385-26.7285ZM55.1196 0L57.7637 0L30.6382-70.459L29.4326-70.459L29.4326-67.1323Z"/>
  </g>
  <line id="Baseline-M" style="fill:none;stroke:#27AAE1;opacity:1;stroke-width:0.5;" x1="263" x2="3036" y1="1126" y2="1126"/>
  <line id="Capline-M" style="fill:none;stroke:#27AAE1;opacity:1;stroke-width:0.5;" x1="263" x2="3036" y1="1055.54" y2="1055.54"/>
  <g id="H-reference" style="fill:#27AAE1;stroke:none;" transform="matrix(1 0 0 1 339 1556)">
   <path d="M0.993654 0L3.63775 0L29.3281-67.1323L30.0303-67.1323L30.0303-70.459L28.1226-70.459ZM11.6885-24.4799L46.9815-24.4799L46.2315-26.7285L12.4385-26.7285ZM55.1196 0L57.7637 0L30.6382-70.459L29.4326-70.459L29.4326-67.1323Z"/>
  </g>
  <line id="Baseline-L" style="fill:none;stroke:#27AAE1;opacity:1;stroke-width:0.5;" x1="263" x2="3036" y1="1556" y2="1556"/>
  <line id="Capline-L" style="fill:none;stroke:#27AAE1;opacity:1;stroke-width:0.5;" x1="263" x2="3036" y1="1485.54" y2="1485.54"/>
  <line id="right-margin-Black-S" style="fill:none;stroke:#00AEEF;stroke-width:0.5;opacity:1.0;" x1="2978.03" x2="2978.03" y1="600.785" y2="720.121"/>
  <line id="left-margin-Black-S" style="fill:none;stroke:#00AEEF;stroke-width:0.5;opacity:1.0;" x1="2888.77" x2="2888.77" y1="600.785" y2="720.121"/>
  <line id="right-margin-Regular-S" style="fill:none;stroke:#00AEEF;stroke-width:0.5;opacity:1.0;" x1="1491.89" x2="1491.89" y1="600.785" y2="720.121"/>
  <line id="left-margin-Regular-S" style="fill:none;stroke:#00AEEF;stroke-width:0.5;opacity:1.0;" x1="1407.8" x2="1407.8" y1="600.785" y2="720.121"/>
  <line id="right-margin-Ultralight-S" style="fill:none;stroke:#00AEEF;stroke-width:0.5;opacity:1.0;" x1="599.164" x2="599.164" y1="600.785" y2="720.121"/>
  <line id="left-margin-Ultralight-S" style="fill:none;stroke:#00AEEF;stroke-width:0.5;opacity:1.0;" x1="520.258" x2="520.258" y1="600.785" y2="720.121"/>
 </g>
 <g id="Symbols">
  <g id="Black-S" transform="matrix(1 0 0 1 2888.77 696)">
   <path class="monochrome-0 multicolor-0:tintColor hierarchical-0:secondary SFSymbolsPreviewWireframe" d="M44.6289 5.61523C45.6055 5.61523 46.875 5.17578 47.9004 4.6875C71.0449-6.34766 79.4922-13.4766 79.4922-27.3438L79.4922-54.4922C79.4922-61.6699 77.5879-64.9902 70.9961-67.8223C68.0176-69.0918 55.0781-73.0469 52.5879-73.7793C50.1465-74.5117 46.9727-74.9512 44.6289-74.9512C42.2852-74.9512 39.1113-74.4629 36.6699-73.7793C34.1797-73.0957 21.2402-69.0918 18.2617-67.8223C11.6699-64.9902 9.76562-61.6699 9.76562-54.4922L9.76562-27.3438C9.76562-13.4766 18.2129-6.34766 41.3574 4.6875C42.3828 5.17578 43.6523 5.61523 44.6289 5.61523ZM44.6289-7.91016C44.3848-7.91016 44.1895-7.95898 43.2617-8.54492C26.709-18.9941 22.4121-20.5078 22.4121-28.8086L22.4121-53.125C22.4121-54.7852 22.8516-55.5176 24.0234-56.0059C28.8574-58.0078 38.4766-61.1328 40.2344-61.6699C42.3828-62.3047 43.457-62.5977 44.6289-62.5977C45.8008-62.5977 46.875-62.3047 49.0234-61.6699C50.7812-61.1328 60.4004-58.0078 65.2344-56.0059C66.4062-55.5176 66.8457-54.7852 66.8457-53.125L66.8457-28.8086C66.8457-20.1172 61.377-17.4316 45.9961-8.54492C45.0684-8.00781 44.873-7.91016 44.6289-7.91016Z"/>
   <path class="monochrome-1 multicolor-1:tintColor hierarchical-1:primary SFSymbolsPreviewWireframe" d="M45.9077-30.2759C50.3074-30.2759 53.2134-32.5518 53.2134-36.4711C53.2134-39.5047 51.2675-41.7112 47.7886-41.7402C45.0554-41.7526 42.6956-40.8832 38.5188-37.6661L29.0383-30.4206L31.0359-27.7821L40.0423-34.6578L37.1802-34.6995C39.1833-32.2595 41.8693-30.2759 45.9077-30.2759ZM29.8856-21.4247C34.0149-21.4247 37.3486-24.773 37.3486-28.9042C37.3486-33.0335 34.0149-36.3983 29.8856-36.3983C25.7229-36.3983 22.3896-33.0335 22.3896-28.9042C22.3896-24.7734 25.7229-21.4247 29.8856-21.4247ZM29.8691-24.7713C27.5847-24.7713 25.7198-26.6172 25.7198-28.9375C25.7198-31.2054 27.6016-33.0517 29.8691-33.0517C32.1371-33.0517 34.0185-31.2222 34.0185-28.9375C34.0185-26.6341 32.1371-24.7713 29.8691-24.7713ZM30.9355-38.6418L37.1075-38.6418C38.0682-38.6418 38.8483-39.4237 38.8483-40.3826C38.8483-41.3434 38.0686-42.1231 37.1075-42.1231L30.9355-42.1231C29.9761-42.1231 29.1947-41.3434 29.1947-40.3826C29.1947-39.4237 29.9765-38.6418 30.9355-38.6418ZM59.4035-21.4247C63.533-21.4247 66.8667-24.773 66.8667-28.9042C66.8667-33.0335 63.533-36.3983 59.4035-36.3983C55.241-36.3983 51.9077-33.0335 51.9077-28.9042C51.9077-24.7734 55.241-21.4247 59.4035-21.4247ZM59.387-24.7713C57.1027-24.7713 55.2379-26.6172 55.2379-28.9375C55.2379-31.2054 57.1195-33.0517 59.387-33.0517C61.6552-33.0517 63.5364-31.2222 63.5364-28.9375C63.5364-26.6341 61.6552-24.7713 59.387-24.7713ZM59.4043-26.5258C60.7376-26.5258 61.798-27.586 61.798-28.9188C61.798-30.2666 60.7541-31.3122 59.4043-31.3122C58.057-31.3122 57.0094-30.2831 56.9929-28.9357C56.9767-27.586 58.0405-26.5258 59.4043-26.5258ZM57.8901-27.6203L61.2269-28.5038L56.4866-47.8102C56.2548-48.7185 55.4466-49.1353 54.3776-49.1353L50.1409-49.1353C49.1822-49.1353 48.4-48.3553 48.4-47.3945C48.4-46.4359 49.1822-45.654 50.1409-45.654L53.5049-45.654C53.6396-45.654 53.7157-45.6075 53.7444-45.4859ZM62.0401-38.2366C62.6962-38.174 62.9927-38.6879 62.8678-39.3128L61.8688-44.1388C61.7453-44.7615 61.2606-45.0579 60.6842-44.7468C60.1991-44.4814 59.7794-44.0908 59.4659-43.6226C58.3879-42.0453 58.8558-39.8139 60.4498-38.7984C60.9033-38.4851 61.4634-38.2827 62.0401-38.2366ZM29.8922-26.5277C31.2249-26.5277 32.2855-27.5878 32.2855-28.9206C32.2855-30.2684 31.2414-31.314 29.8922-31.314C28.5443-31.314 27.4968-30.2849 27.4804-28.9375C27.464-27.5878 28.5278-26.5277 29.8922-26.5277ZM40.4496-25.5081L44.1258-25.5081C44.9953-25.5081 45.4791-25.8055 45.8653-26.354L50.8474-33.3637L46.1274-32.4867L43.7351-29.1673C43.6362-29.0197 43.5805-28.9912 43.3454-28.9912L40.4496-28.9912C39.4889-28.9912 38.7088-28.2093 38.7088-27.2503C38.7088-26.2899 39.4889-25.5081 40.4496-25.5081Z"/>
  </g>
  <g id="Regular-S" transform="matrix(1 0 0 1 1407.8 696)">
   <path class="monochrome-0 multicolor-0:tintColor hierarchical-0:secondary SFSymbolsPreviewWireframe" d="M42.041 4.78516C42.5781 4.78516 43.5547 4.58984 44.6289 4.00391C66.5527-8.00781 74.3164-13.4766 74.3164-27.9297L74.3164-57.3242C74.3164-61.3281 72.4121-62.5488 69.3848-63.8672C65.4297-65.5762 49.2676-71.2891 45.3125-72.6562C44.2871-72.998 43.1641-73.2422 42.041-73.2422C40.918-73.2422 39.7461-72.9004 38.7695-72.6562C34.8145-71.6797 18.6523-65.5273 14.6973-63.8672C11.6699-62.5977 9.76562-61.3281 9.76562-57.3242L9.76562-27.9297C9.76562-13.4766 17.5293-8.05664 39.4531 4.00391C40.5273 4.58984 41.5039 4.78516 42.041 4.78516ZM42.041-3.22266C41.4551-3.22266 40.8691-3.36914 39.5508-4.10156C21.9238-14.6484 16.6992-17.7734 16.6992-29.6387L16.6992-56.0059C16.6992-56.8848 16.8945-57.2754 17.6758-57.6172C23.9258-60.0586 34.4727-63.4277 40.7227-65.918C41.2109-66.1133 41.6504-66.1621 42.041-66.1621C42.4316-66.1621 42.8711-66.1133 43.3594-65.918C49.5605-63.4277 59.9609-59.7656 66.3574-57.6172C67.1875-57.3242 67.334-56.8848 67.334-56.0059L67.334-29.6387C67.334-17.7734 62.1094-14.6484 44.4824-4.10156C43.2129-3.36914 42.627-3.22266 42.041-3.22266Z"/>
   <path class="monochrome-1 multicolor-1:tintColor hierarchical-1:primary SFSymbolsPreviewWireframe" d="M43.5867-30.9167C47.6689-30.9167 50.2582-33.0877 50.2582-36.4165C50.2582-39.3359 48.4169-41.4279 45.0216-41.463C42.4904-41.4831 40.1786-40.5708 36.4936-37.7032L27.1591-30.4532L28.7619-28.3368L37.6267-35.2199L35.33-34.8817C37.2949-32.5595 40.0101-30.9167 43.5867-30.9167ZM28.0065-22.449C31.8071-22.449 34.8747-25.5312 34.8747-29.3321C34.8747-33.1327 31.8071-36.23 28.0065-36.23C24.1817-36.23 21.1083-33.1327 21.1083-29.3321C21.1083-25.5254 24.1817-22.449 28.0065-22.449ZM27.9915-25.1335C25.6578-25.1335 23.7779-27.0097 23.7779-29.3563C23.7779-31.675 25.667-33.5454 27.9915-33.5454C30.3102-33.5454 32.2051-31.6842 32.2051-29.3563C32.2051-27.0189 30.3102-25.1335 27.9915-25.1335ZM29.4242-38.6259L35.2033-38.6259C35.9619-38.6259 36.5794-39.2437 36.5794-40.0021C36.5794-40.7607 35.9562-41.384 35.2033-41.384L29.4242-41.384C28.6716-41.384 28.0481-40.7607 28.0481-40.0021C28.0481-39.2437 28.6658-38.6259 29.4242-38.6259ZM56.1045-22.449C59.9052-22.449 62.9728-25.5312 62.9728-29.3321C62.9728-33.1327 59.9052-36.23 56.1045-36.23C52.2798-36.23 49.2064-33.1327 49.2064-29.3321C49.2064-25.5254 52.2798-22.449 56.1045-22.449ZM56.0895-25.1335C53.7558-25.1335 51.876-27.0097 51.876-29.3563C51.876-31.675 53.765-33.5454 56.0895-33.5454C58.4083-33.5454 60.3032-31.6842 60.3032-29.3563C60.3032-27.0189 58.4083-25.1335 56.0895-25.1335ZM56.0929-27.3306C57.2073-27.3306 58.0976-28.2267 58.0976-29.3468C58.0976-30.4757 57.2224-31.3572 56.0929-31.3572C54.9583-31.3572 54.1057-30.4907 54.0907-29.356C54.0759-28.2267 54.9432-27.3306 56.0929-27.3306ZM54.873-28.5977L57.497-29.3588L52.0686-46.9819C51.8409-47.7305 51.2002-48.0651 50.3025-48.0651L46.498-48.0651C45.7339-48.0651 45.1219-47.4477 45.1219-46.689C45.1219-45.9249 45.7339-45.3071 46.498-45.3071L49.6552-45.3071C49.7699-45.3071 49.8321-45.2744 49.867-45.1681ZM57.5902-38.4641C58.1366-38.4106 58.389-38.8468 58.2822-39.3695L57.4449-43.4287C57.3382-43.9569 56.9313-44.2092 56.4417-43.9422C56.0405-43.7195 55.6816-43.3899 55.4201-42.998C54.5143-41.6707 54.9121-39.7914 56.2485-38.9391C56.6257-38.6776 57.1005-38.5026 57.5902-38.4641ZM27.9901-27.331C29.1102-27.331 30.0005-28.227 30.0005-29.3471C30.0005-30.4761 29.1251-31.3575 27.9901-31.3575C26.8612-31.3575 26.0086-30.491 25.9937-29.3563C25.9787-28.227 26.8462-27.331 27.9901-27.331ZM37.9612-26.3377L41.4009-26.3377C42.113-26.3377 42.4902-26.5606 42.872-27.0449L47.7039-33.1575L43.9324-32.6965L41.1489-29.266C41.047-29.1369 40.9714-29.096 40.7486-29.096L37.9612-29.096C37.2025-29.096 36.5851-28.4783 36.5851-27.7199C36.5851-26.9555 37.2025-26.3377 37.9612-26.3377Z"/>
  </g>
  <g id="Ultralight-S" transform="matrix(1 0 0 1 520.258 696)">
   <path class="monochrome-0 multicolor-0:tintColor hierarchical-0:secondary SFSymbolsPreviewWireframe" d="M39.4527 2.78713C40.3076 2.78713 41.2842 2.31935 41.9497 1.91506C62.7837-10.8232 69.1397-14.6572 69.1397-26.3858L69.1397-55.1445C69.1397-59.3755 68.0528-60.7778 63.981-62.3233C56.9381-65.0313 49.313-68.1104 42.2246-70.6128C41.2447-70.9546 40.3941-71.1987 39.4527-71.1987C38.5112-71.1987 37.6572-70.9478 36.6807-70.6128C29.6377-67.9561 21.9673-65.0278 14.8789-62.3233C10.8525-60.8267 9.76562-59.3755 9.76562-55.1445L9.76562-26.3858C9.76562-14.6572 16.2578-11.0991 36.9556 1.91506C37.6211 2.31935 38.5977 2.78713 39.4527 2.78713ZM39.4527 0.546357C38.7759 0.546357 37.9629 0.0820041 37.4619-0.287139C19.6079-11.9238 11.9766-15.1397 11.9766-26.46L11.9766-54.7344C11.9766-57.7476 12.5352-58.8647 14.6787-59.706C18.4766-61.2392 33.1558-66.8789 37.0445-68.3247C37.9868-68.747 38.9258-68.9775 39.4527-68.9775C39.9795-68.9775 40.8277-68.7016 41.8154-68.3247C45.7007-66.8789 60.3696-61.2187 64.2232-59.706C66.3701-58.8682 66.9253-57.7476 66.9253-54.7344L66.9253-26.46C66.9253-15.1397 59.2031-12.0601 41.44-0.287139C40.9424 0.0820041 40.1294 0.546357 39.4527 0.546357Z"/>
   <path class="monochrome-1 multicolor-1:tintColor hierarchical-1:primary SFSymbolsPreviewWireframe" d="M41.3019-31.8207C44.9424-31.8207 47.1573-33.8467 47.1573-36.4326C47.1573-39.1537 45.4686-41.0548 42.2357-41.0956C39.9856-41.1247 37.7158-40.1651 34.6831-37.7371L25.6424-30.4772L26.6879-29.1052L35.2688-36.0049L33.7073-35.2809C35.6274-33.0512 38.2778-31.8207 41.3019-31.8207ZM26.3924-23.6815C29.7996-23.6815 32.5489-26.4455 32.5489-29.8497C32.5489-33.257 29.7996-36.0326 26.3924-36.0326C22.9732-36.0326 20.2125-33.257 20.2125-29.8497C20.2125-26.434 22.9732-23.6815 26.3924-23.6815ZM26.3807-25.4309C23.9043-25.4309 21.9502-27.3992 21.9502-29.8616C21.9502-32.3263 23.9045-34.2832 26.3807-34.2832C28.8454-34.2832 30.8112-32.3265 30.8112-29.8616C30.8112-27.3994 28.8454-25.4309 26.3807-25.4309ZM28.1769-38.6718L33.4842-38.6718C33.9619-38.6718 34.3541-39.061 34.3541-39.5416C34.3541-40.0193 33.9505-40.4229 33.4842-40.4229L28.1769-40.4229C27.7077-40.4229 27.3071-40.0193 27.3071-39.5416C27.3071-39.061 27.6963-38.6718 28.1769-38.6718ZM52.5361-23.6815C55.9433-23.6815 58.6927-26.4455 58.6927-29.8497C58.6927-33.257 55.9433-36.0326 52.5361-36.0326C49.1169-36.0326 46.3562-33.257 46.3562-29.8497C46.3562-26.434 49.1169-23.6815 52.5361-23.6815ZM52.5244-25.4309C50.048-25.4309 48.0939-27.3992 48.0939-29.8616C48.0939-32.3263 50.0482-34.2832 52.5244-34.2832C54.9891-34.2832 56.9549-32.3265 56.9549-29.8616C56.9549-27.3994 54.9891-25.4309 52.5244-25.4309ZM52.5131-28.3734C53.3252-28.3734 53.9814-29.0409 53.9814-29.8644C53.9814-30.691 53.3369-31.3439 52.5131-31.3439C51.675-31.3439 51.0795-30.7027 51.0678-29.8646C51.0561-29.0409 51.6633-28.3734 52.5131-28.3734ZM51.7155-29.758L53.3557-30.3268L47.1046-46.0247C46.8943-46.5546 46.4814-46.7788 45.8288-46.7788L42.5107-46.7788C42.0186-46.7788 41.6409-46.3866 41.6409-45.909C41.6409-45.4169 42.0186-45.0277 42.5107-45.0277L45.4818-45.0277C45.5763-45.0277 45.6237-45.0096 45.6644-44.9213ZM52.5307-38.7937C52.9374-38.7526 53.1317-39.0882 53.0494-39.4801L52.419-42.5489C52.3336-42.9552 52.0273-43.1495 51.6504-42.9406C51.3557-42.7727 51.076-42.5224 50.8816-42.2277C50.1983-41.2235 50.5043-39.798 51.5088-39.1559C51.7887-38.9615 52.154-38.8233 52.5307-38.7937ZM26.3491-28.3704C27.1725-28.3704 27.8286-29.0379 27.8286-29.8614C27.8286-30.6881 27.1842-31.3409 26.3491-31.3409C25.5224-31.3409 24.9268-30.6997 24.9151-29.8616C24.9035-29.0379 25.5107-28.3704 26.3491-28.3704ZM35.5948-27.4929L38.685-27.4929C39.2077-27.4929 39.4441-27.6143 39.816-28.0202L44.3854-32.9975L41.9211-32.9865L38.6616-29.4054C38.5531-29.2932 38.4572-29.241 38.2457-29.241L35.5948-29.241C35.1171-29.241 34.725-28.8519 34.725-28.3712C34.725-27.8821 35.1171-27.4929 35.5948-27.4929Z"/>
  </g>
 </g>
</svg>
